<?xml version="1.0" standalone="no"?>
<!DOCTYPE svg PUBLIC "-//W3C//DTD SVG 20010904//EN"
 "http://www.w3.org/TR/2001/REC-SVG-20010904/DTD/svg10.dtd">
<svg version="1.0" xmlns="http://www.w3.org/2000/svg"
 width="512.000000pt" height="512.000000pt" viewBox="0 0 512.000000 512.000000"
 preserveAspectRatio="xMidYMid meet">

<g transform="translate(0.000000,512.000000) scale(0.100000,-0.100000)"
fill="#000000" stroke="none">
<path d="M1020 4250 c-37 -12 -68 -33 -97 -63 -78 -83 -73 31 -73 -1627 0
-1671 -6 -1547 79 -1631 84 -85 -40 -79 1631 -79 1671 0 1547 -6 1631 79 85
84 79 -40 79 1631 0 1671 6 1547 -79 1631 -84 85 40 79 -1635 79 -1426 -1
-1483 -1 -1536 -20z m830 -590 l0 -390 -390 0 -390 0 0 383 c0 211 3 387 7
390 3 4 179 7 390 7 l383 0 0 -390z m1210 0 l0 -390 -130 0 -130 0 0 -105 0
-104 128 -3 127 -3 0 -495 0 -495 -280 -3 c-154 -2 -376 0 -492 3 l-213 7 0
488 0 488 220 7 220 8 0 103 0 104 -225 0 -225 0 0 390 0 390 500 0 500 0 0
-390z m988 -2 l2 -388 -390 0 -390 0 0 390 0 390 388 -2 387 -3 3 -387z
m-2198 -1098 l0 -500 -390 0 -390 0 0 500 0 500 390 0 390 0 0 -500z m2200 0
l0 -500 -390 0 -390 0 0 500 0 500 390 0 390 0 0 -500z m-2200 -1100 l0 -390
-387 2 -388 3 -3 388 -2 387 390 0 390 0 0 -390z m1210 0 l0 -390 -500 0 -500
0 0 390 0 390 500 0 500 0 0 -390z m988 3 l-3 -388 -387 -3 -388 -2 0 390 0
390 390 0 390 0 -2 -387z"/>
</g>
</svg>
